<svg width="414" height="354" viewBox="0 0 414 354" fill="none" xmlns="http://www.w3.org/2000/svg">
<g clip-path="url(#clip0)">
<path d="M347.345 204.046L349.216 202.801L349.753 202.429C345.743 201.691 342.089 199.509 339.394 196.244C336.699 192.978 335.126 188.825 334.935 184.472C334.799 181.477 335.329 178.49 336.481 175.757C337.55 173.203 339.129 170.931 341.107 169.1C343.084 167.269 345.412 165.925 347.926 165.162L347.874 173.046L351.915 164.468H351.963C354.307 164.351 356.648 164.729 358.855 165.582C361.062 166.434 363.09 167.743 364.824 169.435C366.558 171.127 367.964 173.169 368.962 175.443C369.959 177.717 370.529 180.179 370.638 182.689C370.638 183.052 370.638 183.415 370.638 183.774C372.062 182.111 373.249 180.231 374.16 178.195C375.868 174.102 375.921 169.472 375.767 163.846C375.498 152.689 375.049 141.447 374.446 130.243C370.226 129.739 366.313 127.64 363.408 124.323C360.503 121.005 358.798 116.688 358.598 112.145C358.571 111.56 358.598 110.98 358.598 110.41C358.598 110.263 358.598 110.122 358.598 109.98C358.628 109.424 358.681 108.872 358.756 108.33C358.756 108.24 358.791 108.156 358.805 108.066C358.875 107.607 358.963 107.154 359.069 106.708C359.104 106.538 359.144 106.373 359.188 106.203C359.311 105.732 359.452 105.232 359.628 104.76C359.681 104.605 359.742 104.449 359.799 104.289C359.926 103.94 360.062 103.596 360.209 103.256C360.288 103.077 360.363 102.898 360.442 102.723C360.442 102.681 360.482 102.634 360.504 102.586C362.39 98.5987 365.521 95.4447 369.352 93.6727C373.183 91.9006 377.473 91.6225 381.476 92.8866L381.353 103.143L385.355 94.6549C388.639 96.672 391.236 99.7597 392.767 103.468C394.299 107.176 394.685 111.312 393.869 115.271C393.842 115.408 393.803 115.54 393.772 115.672C393.719 115.927 393.657 116.177 393.591 116.427C393.508 116.747 393.415 117.058 393.314 117.37C393.239 117.605 393.169 117.841 393.085 118.072C392.962 118.412 392.825 118.742 392.689 119.072C392.605 119.265 392.535 119.463 392.447 119.652C392.222 120.124 391.976 120.628 391.712 121.1C391.619 121.265 391.514 121.42 391.417 121.571C391.223 121.887 391.034 122.203 390.822 122.514C390.695 122.703 390.558 122.882 390.422 123.066C390.228 123.33 390.03 123.594 389.819 123.844C389.607 124.094 389.519 124.202 389.378 124.377C389.238 124.551 388.938 124.849 388.705 125.098C388.551 125.254 388.397 125.414 388.238 125.57C387.974 125.82 387.697 126.042 387.419 126.291C387.279 126.409 387.142 126.532 386.979 126.645C386.539 126.98 386.121 127.296 385.659 127.588C385.575 127.645 385.487 127.692 385.399 127.744C385.025 127.98 384.637 128.215 384.245 128.413C384.078 128.503 383.902 128.579 383.73 128.663C383.405 128.819 383.079 128.97 382.749 129.107C382.555 129.187 382.357 129.258 382.159 129.328C381.833 129.451 381.498 129.559 381.164 129.658C380.961 129.72 380.763 129.776 380.561 129.828C380.195 129.922 379.825 129.998 379.447 130.069H379.376C379.623 134.784 379.842 139.514 380.032 144.258C381.097 141.916 382.597 139.832 384.441 138.133C386.284 136.435 388.432 135.158 390.753 134.38C393.074 133.603 395.519 133.342 397.937 133.614C400.356 133.885 402.697 134.683 404.817 135.958L401.661 145.22L408.154 138.542C411.635 141.951 413.711 146.7 413.926 151.746C414.012 153.517 413.864 155.292 413.485 157.018C412.67 160.75 410.826 164.133 408.193 166.729C405.56 169.325 402.26 171.013 398.72 171.575C395.18 172.136 391.565 171.546 388.342 169.879C385.12 168.213 382.439 165.547 380.649 162.229C380.649 162.7 380.68 163.172 380.693 163.667C380.812 168.637 380.961 174.814 378.65 180.332C377.083 184.076 374.56 187.112 372.073 189.833C370.45 191.606 368.776 193.321 367.05 194.978C365.37 197.421 363.174 199.402 360.64 200.759C357.811 203.092 354.876 205.277 351.836 207.314L349.943 208.573C348.243 209.7 346.5 210.86 344.792 212.067C345.091 212.034 345.391 211.996 345.695 211.982C349.48 211.792 353.224 212.896 356.385 215.135C359.547 217.373 361.962 220.631 363.282 224.436L352.122 234.159L364.395 231.113C364.391 234.347 363.621 237.528 362.158 240.357C360.695 243.186 358.587 245.573 356.031 247.293C353.474 249.014 350.552 250.012 347.537 250.196C344.523 250.38 341.514 249.743 338.792 248.344L339.619 249.447C340.17 250.178 340.716 250.904 341.248 251.626C348.512 261.476 350.528 270.827 346.936 277.957L342.591 275.43C346.091 268.488 340.83 259.604 337.379 254.927C336.855 254.215 336.318 253.512 335.781 252.786C331.145 246.613 325.862 239.615 325.999 231.028C326.192 218.089 337.92 210.303 347.345 204.046Z" fill="#6BD618"/>
<path d="M272.594 122.142L271.635 120.01C271.547 119.808 271.463 119.6 271.371 119.393C275.109 121.056 279.264 121.31 283.154 120.112C287.045 118.914 290.44 116.335 292.782 112.799C295.125 109.263 296.276 104.979 296.048 100.65C295.819 96.3208 294.224 92.2033 291.524 88.9727L287.655 95.6782L288.535 86.1198C288.523 86.1077 288.509 86.0967 288.495 86.0868C286.576 84.6424 284.411 83.617 282.121 83.0692C279.832 82.5213 277.465 82.4618 275.155 82.894C272.844 83.3262 270.636 84.2416 268.656 85.588C266.675 86.9344 264.962 88.6854 263.614 90.7411C263.416 91.0381 263.244 91.3494 263.068 91.6559C262.695 89.4319 262.633 87.161 262.883 84.9174C263.486 80.4801 265.775 76.552 268.707 71.8789C274.518 62.6176 280.523 53.3893 286.629 44.2695C290.445 46.2709 294.802 46.7488 298.917 45.6174C303.033 44.4859 306.636 41.8193 309.081 38.0968C309.398 37.6253 309.679 37.1254 309.961 36.6303C310.027 36.5077 310.093 36.3804 310.155 36.253C310.406 35.7815 310.639 35.2722 310.846 34.7724L310.938 34.5224C311.106 34.0933 311.26 33.6595 311.379 33.221C311.431 33.0559 311.484 32.8956 311.528 32.7494C311.669 32.2778 311.792 31.778 311.894 31.2876C311.929 31.1225 311.955 30.9575 311.986 30.816C312.052 30.4482 312.109 30.0757 312.153 29.7079C312.18 29.5098 312.206 29.3165 312.224 29.1232C312.224 29.0713 312.224 29.0241 312.224 28.9723C312.64 24.5209 311.585 20.0542 309.242 16.3506C306.9 12.647 303.418 9.94124 299.404 8.70488L294.372 17.4333L295.253 8.00227C291.472 7.81378 287.733 8.92582 284.584 11.1758C281.435 13.4258 279.04 16.6958 277.749 20.5079V20.5079C277.705 20.6399 277.675 20.7719 277.631 20.904C277.551 21.1492 277.477 21.3755 277.406 21.6443C277.336 21.9131 277.243 22.2809 277.168 22.5874C277.116 22.8279 277.058 23.059 277.01 23.3136C276.944 23.6673 276.895 24.0257 276.847 24.384C276.816 24.5915 276.781 24.799 276.759 25.0065C276.702 25.5535 276.666 26.1052 276.658 26.6522C276.658 26.8456 276.658 27.0389 276.658 27.2322C276.658 27.6095 276.658 27.9867 276.688 28.3592C276.688 28.595 276.728 28.8308 276.755 29.0571C276.785 29.3919 276.821 29.7315 276.869 30.0615C276.904 30.302 276.944 30.5331 276.988 30.7689C277.049 31.1037 277.12 31.4385 277.195 31.7686C277.248 31.9902 277.3 32.2118 277.358 32.4335C277.455 32.7918 277.569 33.1502 277.688 33.5086C277.745 33.6878 277.798 33.8717 277.864 34.0509C278.053 34.5743 278.26 35.093 278.493 35.5976C278.537 35.6919 278.59 35.7862 278.639 35.8805C278.837 36.2955 279.048 36.7057 279.277 37.1066C279.374 37.2763 279.484 37.4461 279.585 37.6158C279.783 37.9318 279.981 38.243 280.193 38.5589C280.32 38.7381 280.448 38.9126 280.58 39.0871C280.796 39.3747 281.02 39.6577 281.258 39.9359C281.395 40.1009 281.531 40.266 281.676 40.4074C281.94 40.6951 282.218 40.9733 282.5 41.2468L282.552 41.3034C279.978 45.1513 277.425 49.0164 274.892 52.8989C275.164 50.3124 274.939 47.6938 274.233 45.2035C273.526 42.7133 272.352 40.404 270.782 38.4171C269.212 36.4302 267.28 34.8077 265.104 33.6491C262.929 32.4904 260.555 31.82 258.128 31.679L256.156 41.3128L254.017 31.9478C251.716 32.3814 249.519 33.2963 247.549 34.6403C245.579 35.9842 243.875 37.7308 242.536 39.7803C241.578 41.2294 240.817 42.8172 240.277 44.4958C239.101 48.1124 238.965 52.024 239.888 55.7241C240.811 59.4241 242.75 62.742 245.454 65.248C248.158 67.7539 251.502 69.3325 255.053 69.7791C258.604 70.2257 262.198 69.5198 265.37 67.7528C265.119 68.1536 264.864 68.5498 264.613 68.9459C262.024 73.072 258.806 78.2025 258.01 84.1865C257.459 88.2465 258.067 92.2548 258.802 95.9753C259.286 98.4022 259.841 100.812 260.466 103.204C260.678 106.233 261.557 109.165 263.033 111.758C264.256 115.351 265.63 118.888 267.171 122.34L268.135 124.485C269.015 126.414 269.896 128.395 270.737 130.394C270.499 130.196 270.266 129.993 270.015 129.805C266.914 127.471 263.202 126.253 259.413 126.326C255.624 126.4 251.956 127.762 248.936 130.215L253.488 144.833L244.653 135.213C243.039 137.945 242.097 141.071 241.916 144.298C241.734 147.526 242.319 150.75 243.616 153.669C244.913 156.589 246.88 159.109 249.332 160.994C251.784 162.879 254.642 164.068 257.64 164.45L256.39 164.921L253.924 165.827C242.866 169.971 236.478 176.705 235.945 184.788L240.902 185.165C241.422 177.295 250.31 172.82 255.566 170.853C256.363 170.552 257.173 170.259 257.988 169.962C264.992 167.416 272.955 164.53 277.12 157.207C283.411 146.144 277.406 132.837 272.594 122.142Z" fill="#6BD618"/>
<path d="M90.5416 86.8744L88.3405 86.6999L87.7065 86.6339C90.9221 83.9975 93.2056 80.2687 94.1823 76.0593C95.1591 71.8499 94.771 67.4099 93.0819 63.4677C91.3928 59.5256 88.5029 56.3156 84.8864 54.3643C81.2699 52.4131 77.1416 51.8365 73.179 52.7292L76.6744 59.6657L69.3798 54.0778C69.3639 54.0827 69.349 54.0907 69.3358 54.1014C67.2093 55.1619 65.2988 56.6609 63.7133 58.5126C62.1279 60.3643 60.8986 62.5325 60.0956 64.8933C59.2927 67.2541 58.9319 69.7612 59.0338 72.2714C59.1358 74.7816 59.6984 77.2456 60.6897 79.5228C60.8306 79.8529 60.9978 80.1642 61.1563 80.4659C59.1705 79.7006 57.3013 78.6248 55.6094 77.2735C52.2989 74.5244 50.2783 70.4313 47.9451 65.3857C43.3491 55.3699 38.8763 45.189 34.5445 34.9752C38.0657 32.4309 40.6247 28.625 41.7616 24.2413C42.8985 19.8575 42.5389 15.1832 40.7473 11.058C40.5184 10.5251 40.2587 10.0206 39.9901 9.52072L39.7876 9.15291C39.5147 8.68135 39.2329 8.2098 38.9292 7.77597C38.8808 7.70052 38.8235 7.6345 38.7751 7.56377C38.511 7.19124 38.2336 6.83286 37.9519 6.48863L37.6261 6.10195C37.3047 5.73414 36.9746 5.37576 36.6268 5.03624C36.5123 4.92307 36.3891 4.81933 36.2746 4.70616C36.0105 4.46095 35.7375 4.2346 35.4602 3.99411C35.3149 3.87622 35.174 3.75362 35.0199 3.64044L34.9055 3.54613C31.5083 0.95155 27.3697 -0.285736 23.2091 0.0493923C19.0485 0.384521 15.1292 2.27087 12.1324 5.38048L16.6844 14.406L9.46906 8.89827C7.43076 12.315 6.46587 16.3404 6.71535 20.3863C6.96484 24.4323 8.41564 28.2868 10.8558 31.3867V31.3867C10.9394 31.4951 11.0319 31.5894 11.1155 31.6932C11.274 31.8912 11.4369 32.0846 11.6042 32.2685C11.7715 32.4524 12.0444 32.74 12.2557 32.9711C12.467 33.2021 12.5903 33.3153 12.7664 33.4804C13.0217 33.7161 13.2858 33.9519 13.55 34.1641C13.7041 34.2961 13.8537 34.4329 14.0122 34.5602C14.426 34.8856 14.8531 35.1874 15.2933 35.475C15.4474 35.574 15.6059 35.6589 15.7643 35.7532C16.0681 35.9419 16.3763 36.1258 16.6932 36.2908C16.8913 36.3946 17.0894 36.4841 17.2875 36.5785C17.5781 36.7199 17.8642 36.852 18.168 36.9698C18.3793 37.0594 18.5862 37.1396 18.8019 37.2151C19.1013 37.3282 19.405 37.4273 19.7088 37.5216L20.3295 37.7008C20.6729 37.7903 21.0163 37.8658 21.364 37.9318C21.5401 37.9695 21.7118 38.012 21.8879 38.0403C22.4074 38.1252 22.9313 38.1912 23.4595 38.2242C23.5564 38.2242 23.6576 38.2242 23.7589 38.2242C24.1991 38.2242 24.6393 38.2525 25.0796 38.2242C25.2645 38.2242 25.4538 38.2006 25.6431 38.1865C25.9952 38.1865 26.3518 38.1346 26.704 38.0921L27.3203 37.9978C27.6637 37.9412 28.0071 37.8705 28.3461 37.7903C28.5486 37.7479 28.7511 37.7008 28.9536 37.6442C29.319 37.5451 29.68 37.4273 30.041 37.3046L30.1158 37.2811C31.9442 41.5911 33.799 45.8885 35.6803 50.1733C33.7229 48.6318 31.4924 47.5344 29.1253 46.9484C26.7581 46.3624 24.3043 46.3001 21.9139 46.7654C19.5235 47.2307 17.247 48.2138 15.2237 49.6544C13.2004 51.095 11.4729 52.9628 10.147 55.1435L16.9574 61.783L8.25843 59.114C6.65199 63.8644 6.87208 69.1036 8.87035 73.6803C9.56408 75.29 10.4683 76.7857 11.5557 78.1223C13.8952 81.0229 16.9944 83.1034 20.4514 84.0938C23.9083 85.0843 27.5634 84.939 30.9423 83.6768C34.3212 82.4146 37.2679 80.0938 39.4002 77.0155C41.5325 73.9372 42.7518 70.2435 42.9 66.4136C43.0937 66.8475 43.2874 67.2813 43.4855 67.7151C45.5326 72.1713 48.0771 77.7215 52.5146 81.4609C55.5258 83.9932 59.0696 85.4314 62.455 86.6056C64.6591 87.3695 66.8852 88.0564 69.1333 88.6663C71.6893 89.9811 74.5001 90.6276 77.3347 90.5525C80.8566 91.2127 84.4004 91.7031 87.9619 91.9907L90.163 92.1652C92.1572 92.3208 94.2043 92.4811 96.2382 92.698C95.9608 92.8206 95.6791 92.9385 95.4061 93.0753C91.9702 94.7929 89.1335 97.6367 87.3061 101.195C85.4788 104.754 84.7557 108.843 85.2413 112.871L99.3286 115.941L87.1386 119.341C88.5429 122.205 90.602 124.64 93.1235 126.42C95.6451 128.2 98.5467 129.267 101.557 129.519C104.568 129.772 107.589 129.204 110.339 127.867C113.089 126.529 115.477 124.467 117.281 121.873C117.197 122.345 117.114 122.816 117.026 123.264C116.858 124.207 116.687 125.098 116.528 126.004C114.367 138.34 116.63 147.625 122.903 152.156L125.681 147.743C119.575 143.333 120.398 132.846 121.415 126.994C121.569 126.103 121.736 125.202 121.904 124.302C123.356 116.511 124.972 107.684 121.155 100.139C115.357 88.7936 101.596 87.7279 90.5416 86.8744Z" fill="#6BD618"/>
<path d="M72.5673 258.421H31.626V349.431H72.5673V258.421Z" fill="#3F3D56"/>
<path opacity="0.1" d="M72.5673 258.421H31.626V349.431H72.5673V258.421Z" fill="black"/>
<path d="M262.747 132.044C262.276 72.0817 216.769 23.6201 160.684 23.5871C104.115 23.5541 58.4805 73.2606 58.4805 133.827V332.436C58.4805 337.563 60.3821 342.481 63.767 346.107C67.1519 349.733 71.7429 351.77 76.5299 351.77H262.747C319.153 351.77 364.88 301.846 364.88 241.426C364.88 181.006 319.153 132.044 262.747 132.044Z" fill="#E01B29"/>
<path d="M58.084 280.989H104.836V351.722H76.1598C71.3728 351.722 66.7819 349.686 63.3969 346.06C60.012 342.434 58.1104 337.516 58.1104 332.389V280.989H58.084Z" fill="#5F5478"/>
<path d="M122.626 245.774H72.5586V299.404H122.626V245.774Z" fill="#D4A1A1"/>
<path opacity="0.1" d="M122.626 250.961H72.5586V304.591H122.626V250.961Z" fill="black"/>
<path d="M162.744 244.807C162.744 244.807 211.301 268.715 209.795 280.669C208.29 292.623 198.349 294.235 198.349 294.235L169.096 279.051L148.586 261.604L162.744 244.807Z" fill="#5F5478"/>
<path d="M115.934 270.276C116.273 272.633 116.476 275.123 115.675 277.349C114.794 279.792 112.835 281.593 111.761 283.951C110.154 287.45 110.757 291.764 112.531 295.174C114.306 298.583 117.097 301.243 119.967 303.662C124.237 307.236 128.877 310.447 134.054 312.121C140.257 314.121 146.878 313.819 153.349 313.498C154.418 313.506 155.48 313.324 156.493 312.961C157.2 312.62 157.865 312.188 158.474 311.673C161.855 309.042 165.288 306.302 167.573 302.553C169.115 299.981 170.062 297.052 170.335 294.009C170.607 290.967 170.198 287.898 169.14 285.059C167.014 279.509 162.489 275.194 160.948 269.427C159.83 265.239 160.42 260.779 160.406 256.421C160.457 255.69 160.325 254.958 160.023 254.299C159.411 253.215 158.082 252.941 156.907 252.781C148.938 251.663 140.895 250.829 132.848 251.126C128.773 251.258 124.715 251.749 120.715 252.592C118.554 253.064 113.35 253.488 112.791 256.464C112.465 258.242 113.94 260.911 114.389 262.594C115.052 265.118 115.568 267.683 115.934 270.276V270.276Z" fill="#FBBEBE"/>
<path opacity="0.1" d="M115.934 270.276C116.273 272.633 116.476 275.123 115.675 277.349C114.794 279.792 112.835 281.593 111.761 283.951C110.154 287.45 110.757 291.764 112.531 295.174C114.306 298.583 117.097 301.243 119.967 303.662C124.237 307.236 128.877 310.447 134.054 312.121C140.257 314.121 146.878 313.819 153.349 313.498C154.418 313.506 155.48 313.324 156.493 312.961C157.2 312.62 157.865 312.188 158.474 311.673C161.855 309.042 165.288 306.302 167.573 302.553C169.115 299.981 170.062 297.052 170.335 294.009C170.607 290.967 170.198 287.898 169.14 285.059C167.014 279.509 162.489 275.194 160.948 269.427C159.83 265.239 160.42 260.779 160.406 256.421C160.457 255.69 160.325 254.958 160.023 254.299C159.411 253.215 158.082 252.941 156.907 252.781C148.938 251.663 140.895 250.829 132.848 251.126C128.773 251.258 124.715 251.749 120.715 252.592C118.554 253.064 113.35 253.488 112.791 256.464C112.465 258.242 113.94 260.911 114.389 262.594C115.052 265.118 115.568 267.683 115.934 270.276V270.276Z" fill="black"/>
<path d="M81.3057 266.777C102.295 266.777 119.311 248.551 119.311 226.068C119.311 203.584 102.295 185.358 81.3057 185.358C60.3162 185.358 43.3008 203.584 43.3008 226.068C43.3008 248.551 60.3162 266.777 81.3057 266.777Z" fill="#D4A1A1"/>
<path d="M137.559 272.431C158.548 272.431 175.564 254.204 175.564 231.721C175.564 209.238 158.548 191.012 137.559 191.012C116.569 191.012 99.5537 209.238 99.5537 231.721C99.5537 254.204 116.569 272.431 137.559 272.431Z" fill="#FBBEBE"/>
<path d="M159.249 209.148C157.611 209.921 156.202 211.162 154.609 212.034C150.026 214.538 144.523 213.732 139.5 212.534C136.837 211.897 133.711 210.648 133.205 207.781C132.663 204.734 135.476 202.273 136.374 199.33C132.116 198.478 127.713 199.338 124.008 201.745C119.382 204.777 116.001 210.148 110.758 211.619C109.792 211.953 108.752 211.953 107.786 211.619C106.786 211.119 105.994 210.241 105.563 209.153C103.159 203.829 106.443 197.737 107.267 191.885C107.94 187.009 107.024 181.374 110.102 177.71C113.28 173.937 118.823 174.48 123.463 173.381C126.64 172.627 129.576 170.991 131.977 168.637C132.627 167.922 133.338 167.271 134.098 166.694C135.081 166.087 136.168 165.699 137.295 165.553C141.674 164.834 146.15 165.8 149.929 168.279C152.57 170.009 154.833 172.471 157.792 173.395C159.376 173.895 161.054 173.909 162.687 174.159C166.054 174.727 169.211 176.273 171.816 178.628C174.421 180.983 176.373 184.058 177.461 187.518C177.848 188.81 178.121 190.168 178.817 191.29C180.195 193.54 182.871 194.384 184.76 196.157C186.649 197.93 187.63 200.58 188.449 203.126C190.608 210.009 191.851 217.182 192.143 224.436C192.301 228.383 192.063 232.674 189.704 235.706C189.145 236.337 188.616 236.998 188.119 237.687C186.486 240.304 187.366 243.817 187.01 246.924C186.715 249.434 185.603 251.751 183.871 253.469C183.463 253.954 182.894 254.247 182.286 254.285C181.582 254.248 181.036 253.616 180.653 252.979C179.306 250.734 178.962 247.976 177.972 245.524C176.981 243.072 174.855 240.728 172.385 241.101C171.756 241.195 171.161 241.459 170.532 241.572C168.771 241.874 166.962 240.808 165.857 239.29C164.752 237.771 164.228 235.862 163.858 233.98C162.81 228.628 162.85 223.134 163.25 217.688C163.404 215.585 164.536 211.845 164.012 209.855C163.488 207.866 160.776 208.422 159.249 209.148Z" fill="white"/>
<path d="M142.048 305.736C136.034 303.158 130.99 298.514 127.706 292.533C125.297 288.119 123.915 283.102 121.181 278.896C117.197 272.765 109.683 275.854 102.723 275.816C93.8079 275.769 86.5221 274.51 79.2011 279.961C74.3234 283.588 69.0759 287.77 67.7552 293.962C66.5886 299.328 68.6708 305.053 67.5042 310.424C66.7162 314.045 67.7199 317.374 67.1476 321.048C66.342 326.235 65.6949 331.078 68.1734 335.609L76.7314 351.256L169.62 351.633C169.562 351.633 169.448 351.817 169.391 351.817H235.909C235.791 348.445 235.592 345.13 234.589 341.942C233.528 338.642 232.009 335.529 230.499 332.436L213.717 298.111C210.513 291.547 207.004 284.644 201.017 280.937C197.746 278.914 193.973 278.023 190.5 276.491C185.943 274.496 184.724 275.892 179.969 274.524C175.215 273.157 166.393 269.592 163.8 274.053C161.757 277.58 162.356 282.097 161.599 286.167C160.912 289.864 159.081 293.203 157.051 296.287C155.189 299.116 153.089 301.846 150.448 303.831C147.806 305.817 145.059 307.024 142.048 305.736Z" fill="#3F3D56"/>
<path d="M141.78 325.414C141.78 325.414 110.414 327.999 110.713 335.105C110.713 335.105 140.574 343.829 140.574 343.508C140.574 343.187 141.78 325.414 141.78 325.414Z" fill="#FBBEBE"/>
<path d="M103.176 310.23C103.176 310.23 105.589 330.583 114.332 334.459C123.075 338.335 150.831 338.981 150.831 338.981L169.528 351.906H77.2338C77.2338 351.906 73.012 298.621 77.2338 298.621C81.4556 298.621 103.176 310.23 103.176 310.23Z" fill="#3F3D56"/>
<path d="M176.466 302.473L198.196 321.859L139.082 323.476C139.082 323.476 130.506 334.794 134.041 338.019C137.576 341.244 154.16 343.508 154.16 343.508L169.541 351.906L234.193 351.821L212.675 310.23L176.466 302.473Z" fill="#3F3D56"/>
<path opacity="0.1" d="M176.466 302.473L198.196 321.859L139.082 323.476C139.082 323.476 130.506 334.794 134.041 338.019C137.576 341.244 154.16 343.508 154.16 343.508L169.541 351.906L234.193 351.821L212.675 310.23L176.466 302.473Z" fill="black"/>
<path d="M188.079 272.591L150.677 305.543L178.125 328.805L209.192 285.191L188.079 272.591Z" fill="#5F5478"/>
<path d="M168.022 308.292C168.022 308.292 193.054 303.445 197.579 301.181C202.105 298.918 220.207 290.519 215.365 296.984C210.522 303.449 208.431 303.765 208.431 303.765C208.431 303.765 227.127 305.383 226.524 309.259C225.921 313.135 223.813 313.781 223.813 313.781C223.813 313.781 231.653 318.629 229.844 319.911C228.034 321.194 229.241 325.726 228.937 326.697C228.633 327.668 231.05 332.827 228.637 333.483C226.225 334.138 200.586 332.837 195.18 331.545C189.774 330.252 165.319 331.865 165.319 331.865L168.022 308.292Z" fill="#E0AAAA"/>
<path d="M51.7488 264.839C51.7488 264.839 42.099 277.439 51.7488 292.623C61.3986 307.807 81.3057 325.254 92.1662 328.159C103.027 331.064 175.11 332.36 175.11 332.36C175.11 332.36 178.429 297.465 175.11 296.173C171.79 294.881 112.976 299.083 104.832 292.623C96.6873 286.162 72.2546 267.423 65.0217 266.777C60.5695 266.373 56.1394 265.726 51.7488 264.839V264.839Z" fill="#5F5478"/>
<path d="M106.021 197.279C103.376 196.087 100.631 195.166 97.8236 194.53C83.9828 191.413 70.6526 208.842 73.9544 223.332C75.2751 229.18 78.9994 234.593 78.4095 240.582C77.8548 246.274 73.5097 250.838 72.6117 256.478C72.3451 257.757 72.4606 259.093 72.9418 260.298C73.7783 262.113 75.7373 263.047 76.7234 264.773C78.3831 267.677 76.5297 271.671 73.7651 273.36C71.0004 275.048 67.6723 275.114 64.5203 275.392C60.563 275.742 56.6435 276.476 52.8102 277.585C50.6354 278.217 48.4431 278.999 46.6866 280.508C42.5308 284.073 41.9585 290.784 43.4773 296.249C44.9961 301.714 48.1525 306.463 50.4285 311.617C52.7045 316.771 54.0648 322.934 51.8197 328.098C49.4688 333.506 43.4245 337.359 43.671 343.324C43.7371 344.932 44.2917 346.507 44.1861 348.11C43.9528 351.817 40.0964 354.349 36.645 353.967C33.1936 353.585 30.2484 351.048 28.0385 348.176C24.3648 343.403 22.1026 337.565 21.5407 331.408C21.0036 325.429 22.0954 319.289 20.7835 313.446C19.5641 308.028 16.4032 303.393 13.6782 298.644C4.91776 283.353 0.192254 265.803 0.00472298 247.863C-0.0348976 243.341 0.224835 238.757 1.5015 234.447C3.10393 229.048 6.22075 224.332 8.54516 219.239C11.006 213.85 16.7598 198.081 21.9589 183.477C24.5241 176.244 29.2098 170.097 35.313 165.959C41.4162 161.821 48.6076 159.915 55.8081 160.526C57.6884 160.746 59.5876 160.698 61.4563 160.385C64.8108 159.687 67.8924 157.919 71.1985 156.966C80.4433 154.306 91.1145 158.998 95.9482 167.868C97.3525 170.448 98.299 173.32 99.9455 175.729C101.416 177.879 103.375 179.572 105.079 181.51C106.025 182.586 106.891 183.739 107.671 184.957" fill="#3F3D56"/>
<path opacity="0.1" d="M262.746 131.101C262.275 71.1386 216.768 22.677 160.683 22.644C130.017 22.644 102.573 37.2339 83.8545 60.2598C101.577 45.6202 123.335 37.6971 145.715 37.7337C201.801 37.7667 247.307 86.2283 247.778 146.191C304.185 146.191 349.911 195.171 349.911 255.591C349.945 281.946 341.063 307.421 324.911 327.301C337.352 317.095 347.429 303.956 354.361 288.902C361.292 273.849 364.892 257.287 364.879 240.502C364.879 180.082 319.152 131.101 262.746 131.101Z" fill="black"/>
</g>
<defs>
<clipPath id="clip0">
<rect width="414" height="354" fill="white"/>
</clipPath>
</defs>
</svg>
